<svg width="503" height="71" viewBox="0 0 503 71" fill="none" xmlns="http://www.w3.org/2000/svg">
<path d="M12.656 47V24.6H17.84V42.776H29.072V47H12.656ZM42.3015 47V43.64L41.9815 42.904V36.888C41.9815 35.8213 41.6508 34.9893 40.9895 34.392C40.3495 33.7947 39.3575 33.496 38.0135 33.496C37.0962 33.496 36.1895 33.6453 35.2935 33.944C34.4188 34.2213 33.6722 34.6053 33.0535 35.096L31.2615 31.608C32.2002 30.9467 33.3308 30.4347 34.6535 30.072C35.9762 29.7093 37.3202 29.528 38.6855 29.528C41.3095 29.528 43.3468 30.1467 44.7975 31.384C46.2482 32.6213 46.9735 34.552 46.9735 37.176V47H42.3015ZM37.0535 47.256C35.7095 47.256 34.5575 47.032 33.5975 46.584C32.6375 46.1147 31.9015 45.4853 31.3895 44.696C30.8775 43.9067 30.6215 43.0213 30.6215 42.04C30.6215 41.016 30.8668 40.12 31.3575 39.352C31.8695 38.584 32.6695 37.9867 33.7575 37.56C34.8455 37.112 36.2642 36.888 38.0135 36.888H42.5895V39.8H38.5575C37.3842 39.8 36.5735 39.992 36.1255 40.376C35.6988 40.76 35.4855 41.24 35.4855 41.816C35.4855 42.456 35.7308 42.968 36.2215 43.352C36.7335 43.7147 37.4268 43.896 38.3015 43.896C39.1335 43.896 39.8802 43.704 40.5415 43.32C41.2028 42.9147 41.6828 42.328 41.9815 41.56L42.7495 43.864C42.3868 44.9733 41.7255 45.816 40.7655 46.392C39.8055 46.968 38.5682 47.256 37.0535 47.256ZM61.9555 29.528C63.3208 29.528 64.5368 29.8053 65.6035 30.36C66.6915 30.8933 67.5448 31.7253 68.1635 32.856C68.7822 33.9653 69.0915 35.3947 69.0915 37.144V47H64.0995V37.912C64.0995 36.5253 63.7902 35.5013 63.1715 34.84C62.5742 34.1787 61.7208 33.848 60.6115 33.848C59.8222 33.848 59.1075 34.0187 58.4675 34.36C57.8488 34.68 57.3582 35.1813 56.9955 35.864C56.6542 36.5467 56.4835 37.4213 56.4835 38.488V47H51.4915V29.784H56.2595V34.552L55.3635 33.112C55.9822 31.96 56.8675 31.0747 58.0195 30.456C59.1715 29.8373 60.4835 29.528 61.9555 29.528ZM81.8375 53.464C80.2162 53.464 78.6482 53.2613 77.1335 52.856C75.6402 52.472 74.3922 51.8853 73.3895 51.096L75.3735 47.512C76.0988 48.1093 77.0162 48.5787 78.1255 48.92C79.2562 49.2827 80.3655 49.464 81.4535 49.464C83.2242 49.464 84.5042 49.0693 85.2935 48.28C86.1042 47.4907 86.5095 46.3173 86.5095 44.76V42.168L86.8295 37.848L86.7655 33.496V29.784H91.5015V44.12C91.5015 47.32 90.6695 49.6773 89.0055 51.192C87.3415 52.7067 84.9522 53.464 81.8375 53.464ZM81.0695 46.168C79.4695 46.168 78.0188 45.8267 76.7175 45.144C75.4375 44.44 74.4028 43.4693 73.6135 42.232C72.8455 40.9733 72.4615 39.512 72.4615 37.848C72.4615 36.1627 72.8455 34.7013 73.6135 33.464C74.4028 32.2053 75.4375 31.2347 76.7175 30.552C78.0188 29.8693 79.4695 29.528 81.0695 29.528C82.5202 29.528 83.8002 29.8267 84.9095 30.424C86.0188 31 86.8828 31.9067 87.5015 33.144C88.1202 34.36 88.4295 35.928 88.4295 37.848C88.4295 39.7467 88.1202 41.3147 87.5015 42.552C86.8828 43.768 86.0188 44.6747 84.9095 45.272C83.8002 45.8693 82.5202 46.168 81.0695 46.168ZM82.0615 42.072C82.9362 42.072 83.7148 41.9013 84.3975 41.56C85.0802 41.1973 85.6135 40.696 85.9975 40.056C86.3815 39.416 86.5735 38.68 86.5735 37.848C86.5735 36.9947 86.3815 36.2587 85.9975 35.64C85.6135 35 85.0802 34.5093 84.3975 34.168C83.7148 33.8053 82.9362 33.624 82.0615 33.624C81.1868 33.624 80.4082 33.8053 79.7255 34.168C79.0428 34.5093 78.4988 35 78.0935 35.64C77.7095 36.2587 77.5175 36.9947 77.5175 37.848C77.5175 38.68 77.7095 39.416 78.0935 40.056C78.4988 40.696 79.0428 41.1973 79.7255 41.56C80.4082 41.9013 81.1868 42.072 82.0615 42.072ZM103.412 47.256C101.982 47.256 100.702 46.9787 99.5718 46.424C98.4624 45.8693 97.5984 45.0267 96.9798 43.896C96.3611 42.744 96.0518 41.2827 96.0518 39.512V29.784H101.044V38.776C101.044 40.2053 101.342 41.2613 101.94 41.944C102.558 42.6053 103.422 42.936 104.532 42.936C105.3 42.936 105.982 42.776 106.58 42.456C107.177 42.1147 107.646 41.6027 107.988 40.92C108.329 40.216 108.5 39.3413 108.5 38.296V29.784H113.492V47H108.756V42.264L109.62 43.64C109.044 44.8347 108.19 45.7413 107.06 46.36C105.95 46.9573 104.734 47.256 103.412 47.256ZM128.677 47V43.64L128.357 42.904V36.888C128.357 35.8213 128.026 34.9893 127.365 34.392C126.725 33.7947 125.733 33.496 124.389 33.496C123.471 33.496 122.565 33.6453 121.669 33.944C120.794 34.2213 120.047 34.6053 119.429 35.096L117.637 31.608C118.575 30.9467 119.706 30.4347 121.029 30.072C122.351 29.7093 123.695 29.528 125.061 29.528C127.685 29.528 129.722 30.1467 131.173 31.384C132.623 32.6213 133.349 34.552 133.349 37.176V47H128.677ZM123.429 47.256C122.085 47.256 120.933 47.032 119.973 46.584C119.013 46.1147 118.277 45.4853 117.765 44.696C117.253 43.9067 116.997 43.0213 116.997 42.04C116.997 41.016 117.242 40.12 117.733 39.352C118.245 38.584 119.045 37.9867 120.133 37.56C121.221 37.112 122.639 36.888 124.389 36.888H128.965V39.8H124.933C123.759 39.8 122.949 39.992 122.501 40.376C122.074 40.76 121.861 41.24 121.861 41.816C121.861 42.456 122.106 42.968 122.597 43.352C123.109 43.7147 123.802 43.896 124.677 43.896C125.509 43.896 126.255 43.704 126.917 43.32C127.578 42.9147 128.058 42.328 128.357 41.56L129.125 43.864C128.762 44.9733 128.101 45.816 127.141 46.392C126.181 46.968 124.943 47.256 123.429 47.256ZM146.088 53.464C144.466 53.464 142.898 53.2613 141.384 52.856C139.89 52.472 138.642 51.8853 137.64 51.096L139.624 47.512C140.349 48.1093 141.266 48.5787 142.376 48.92C143.506 49.2827 144.616 49.464 145.704 49.464C147.474 49.464 148.754 49.0693 149.544 48.28C150.354 47.4907 150.76 46.3173 150.76 44.76V42.168L151.08 37.848L151.016 33.496V29.784H155.752V44.12C155.752 47.32 154.92 49.6773 153.256 51.192C151.592 52.7067 149.202 53.464 146.088 53.464ZM145.32 46.168C143.72 46.168 142.269 45.8267 140.968 45.144C139.688 44.44 138.653 43.4693 137.864 42.232C137.096 40.9733 136.712 39.512 136.712 37.848C136.712 36.1627 137.096 34.7013 137.864 33.464C138.653 32.2053 139.688 31.2347 140.968 30.552C142.269 29.8693 143.72 29.528 145.32 29.528C146.77 29.528 148.05 29.8267 149.16 30.424C150.269 31 151.133 31.9067 151.752 33.144C152.37 34.36 152.68 35.928 152.68 37.848C152.68 39.7467 152.37 41.3147 151.752 42.552C151.133 43.768 150.269 44.6747 149.16 45.272C148.05 45.8693 146.77 46.168 145.32 46.168ZM146.312 42.072C147.186 42.072 147.965 41.9013 148.648 41.56C149.33 41.1973 149.864 40.696 150.248 40.056C150.632 39.416 150.824 38.68 150.824 37.848C150.824 36.9947 150.632 36.2587 150.248 35.64C149.864 35 149.33 34.5093 148.648 34.168C147.965 33.8053 147.186 33.624 146.312 33.624C145.437 33.624 144.658 33.8053 143.976 34.168C143.293 34.5093 142.749 35 142.344 35.64C141.96 36.2587 141.768 36.9947 141.768 37.848C141.768 38.68 141.96 39.416 142.344 40.056C142.749 40.696 143.293 41.1973 143.976 41.56C144.658 41.9013 145.437 42.072 146.312 42.072ZM168.942 47.256C166.979 47.256 165.251 46.872 163.758 46.104C162.286 45.336 161.144 44.2907 160.334 42.968C159.523 41.624 159.118 40.0987 159.118 38.392C159.118 36.664 159.512 35.1387 160.302 33.816C161.112 32.472 162.211 31.4267 163.598 30.68C164.984 29.912 166.552 29.528 168.302 29.528C169.987 29.528 171.502 29.8907 172.846 30.616C174.211 31.32 175.288 32.344 176.078 33.688C176.867 35.0107 177.262 36.6 177.262 38.456C177.262 38.648 177.251 38.872 177.23 39.128C177.208 39.3627 177.187 39.5867 177.166 39.8H163.182V36.888H174.542L172.622 37.752C172.622 36.856 172.44 36.0773 172.078 35.416C171.715 34.7547 171.214 34.2427 170.574 33.88C169.934 33.496 169.187 33.304 168.334 33.304C167.48 33.304 166.723 33.496 166.062 33.88C165.422 34.2427 164.92 34.7653 164.558 35.448C164.195 36.1093 164.014 36.8987 164.014 37.816V38.584C164.014 39.5227 164.216 40.3547 164.622 41.08C165.048 41.784 165.635 42.328 166.382 42.712C167.15 43.0747 168.046 43.256 169.07 43.256C169.987 43.256 170.787 43.1173 171.47 42.84C172.174 42.5627 172.814 42.1467 173.39 41.592L176.046 44.472C175.256 45.368 174.264 46.0613 173.07 46.552C171.875 47.0213 170.499 47.256 168.942 47.256ZM190 47V24.6H195.184V42.776H206.416V47H190ZM217.411 47.256C215.448 47.256 213.72 46.872 212.227 46.104C210.755 45.336 209.613 44.2907 208.803 42.968C207.992 41.624 207.587 40.0987 207.587 38.392C207.587 36.664 207.981 35.1387 208.771 33.816C209.581 32.472 210.68 31.4267 212.067 30.68C213.453 29.912 215.021 29.528 216.771 29.528C218.456 29.528 219.971 29.8907 221.315 30.616C222.68 31.32 223.757 32.344 224.547 33.688C225.336 35.0107 225.731 36.6 225.731 38.456C225.731 38.648 225.72 38.872 225.699 39.128C225.677 39.3627 225.656 39.5867 225.635 39.8H211.651V36.888H223.01L221.091 37.752C221.091 36.856 220.909 36.0773 220.547 35.416C220.184 34.7547 219.683 34.2427 219.043 33.88C218.403 33.496 217.656 33.304 216.803 33.304C215.949 33.304 215.192 33.496 214.531 33.88C213.891 34.2427 213.389 34.7653 213.027 35.448C212.664 36.1093 212.483 36.8987 212.483 37.816V38.584C212.483 39.5227 212.685 40.3547 213.091 41.08C213.517 41.784 214.104 42.328 214.851 42.712C215.619 43.0747 216.515 43.256 217.539 43.256C218.456 43.256 219.256 43.1173 219.939 42.84C220.643 42.5627 221.283 42.1467 221.859 41.592L224.515 44.472C223.725 45.368 222.733 46.0613 221.539 46.552C220.344 47.0213 218.968 47.256 217.411 47.256ZM239.145 47V43.64L238.825 42.904V36.888C238.825 35.8213 238.495 34.9893 237.833 34.392C237.193 33.7947 236.201 33.496 234.857 33.496C233.94 33.496 233.033 33.6453 232.137 33.944C231.263 34.2213 230.516 34.6053 229.897 35.096L228.105 31.608C229.044 30.9467 230.175 30.4347 231.497 30.072C232.82 29.7093 234.164 29.528 235.529 29.528C238.153 29.528 240.191 30.1467 241.641 31.384C243.092 32.6213 243.817 34.552 243.817 37.176V47H239.145ZM233.897 47.256C232.553 47.256 231.401 47.032 230.441 46.584C229.481 46.1147 228.745 45.4853 228.233 44.696C227.721 43.9067 227.465 43.0213 227.465 42.04C227.465 41.016 227.711 40.12 228.201 39.352C228.713 38.584 229.513 37.9867 230.601 37.56C231.689 37.112 233.108 36.888 234.857 36.888H239.433V39.8H235.401C234.228 39.8 233.417 39.992 232.969 40.376C232.543 40.76 232.329 41.24 232.329 41.816C232.329 42.456 232.575 42.968 233.065 43.352C233.577 43.7147 234.271 43.896 235.145 43.896C235.977 43.896 236.724 43.704 237.385 43.32C238.047 42.9147 238.527 42.328 238.825 41.56L239.593 43.864C239.231 44.9733 238.569 45.816 237.609 46.392C236.649 46.968 235.412 47.256 233.897 47.256ZM248.335 47V29.784H253.103V34.648L252.431 33.24C252.943 32.024 253.765 31.1067 254.895 30.488C256.026 29.848 257.402 29.528 259.023 29.528V34.136C258.81 34.1147 258.618 34.104 258.447 34.104C258.277 34.0827 258.095 34.072 257.903 34.072C256.538 34.072 255.429 34.4667 254.575 35.256C253.743 36.024 253.327 37.2293 253.327 38.872V47H248.335ZM272.487 29.528C273.852 29.528 275.068 29.8053 276.135 30.36C277.223 30.8933 278.076 31.7253 278.695 32.856C279.313 33.9653 279.623 35.3947 279.623 37.144V47H274.631V37.912C274.631 36.5253 274.321 35.5013 273.703 34.84C273.105 34.1787 272.252 33.848 271.143 33.848C270.353 33.848 269.639 34.0187 268.999 34.36C268.38 34.68 267.889 35.1813 267.527 35.864C267.185 36.5467 267.015 37.4213 267.015 38.488V47H262.023V29.784H266.791V34.552L265.895 33.112C266.513 31.96 267.399 31.0747 268.551 30.456C269.703 29.8373 271.015 29.528 272.487 29.528ZM284.148 47V29.784H289.14V47H284.148ZM286.644 27.384C285.726 27.384 284.98 27.1173 284.404 26.584C283.828 26.0507 283.54 25.3893 283.54 24.6C283.54 23.8107 283.828 23.1493 284.404 22.616C284.98 22.0827 285.726 21.816 286.644 21.816C287.561 21.816 288.308 22.072 288.884 22.584C289.46 23.0747 289.748 23.7147 289.748 24.504C289.748 25.336 289.46 26.0293 288.884 26.584C288.329 27.1173 287.582 27.384 286.644 27.384ZM304.237 29.528C305.602 29.528 306.818 29.8053 307.885 30.36C308.973 30.8933 309.826 31.7253 310.445 32.856C311.063 33.9653 311.373 35.3947 311.373 37.144V47H306.381V37.912C306.381 36.5253 306.071 35.5013 305.453 34.84C304.855 34.1787 304.002 33.848 302.893 33.848C302.103 33.848 301.389 34.0187 300.749 34.36C300.13 34.68 299.639 35.1813 299.277 35.864C298.935 36.5467 298.765 37.4213 298.765 38.488V47H293.773V29.784H298.541V34.552L297.645 33.112C298.263 31.96 299.149 31.0747 300.301 30.456C301.453 29.8373 302.765 29.528 304.237 29.528ZM324.119 53.464C322.497 53.464 320.929 53.2613 319.415 52.856C317.921 52.472 316.673 51.8853 315.671 51.096L317.655 47.512C318.38 48.1093 319.297 48.5787 320.407 48.92C321.537 49.2827 322.647 49.464 323.735 49.464C325.505 49.464 326.785 49.0693 327.575 48.28C328.385 47.4907 328.791 46.3173 328.791 44.76V42.168L329.111 37.848L329.047 33.496V29.784H333.783V44.12C333.783 47.32 332.951 49.6773 331.287 51.192C329.623 52.7067 327.233 53.464 324.119 53.464ZM323.351 46.168C321.751 46.168 320.3 45.8267 318.999 45.144C317.719 44.44 316.684 43.4693 315.895 42.232C315.127 40.9733 314.743 39.512 314.743 37.848C314.743 36.1627 315.127 34.7013 315.895 33.464C316.684 32.2053 317.719 31.2347 318.999 30.552C320.3 29.8693 321.751 29.528 323.351 29.528C324.801 29.528 326.081 29.8267 327.191 30.424C328.3 31 329.164 31.9067 329.783 33.144C330.401 34.36 330.711 35.928 330.711 37.848C330.711 39.7467 330.401 41.3147 329.783 42.552C329.164 43.768 328.3 44.6747 327.191 45.272C326.081 45.8693 324.801 46.168 323.351 46.168ZM324.343 42.072C325.217 42.072 325.996 41.9013 326.679 41.56C327.361 41.1973 327.895 40.696 328.279 40.056C328.663 39.416 328.855 38.68 328.855 37.848C328.855 36.9947 328.663 36.2587 328.279 35.64C327.895 35 327.361 34.5093 326.679 34.168C325.996 33.8053 325.217 33.624 324.343 33.624C323.468 33.624 322.689 33.8053 322.007 34.168C321.324 34.5093 320.78 35 320.375 35.64C319.991 36.2587 319.799 36.9947 319.799 37.848C319.799 38.68 319.991 39.416 320.375 40.056C320.78 40.696 321.324 41.1973 322.007 41.56C322.689 41.9013 323.468 42.072 324.343 42.072ZM347.844 47V24.6H357.54C359.545 24.6 361.273 24.9307 362.724 25.592C364.174 26.232 365.294 27.16 366.084 28.376C366.873 29.592 367.268 31.0427 367.268 32.728C367.268 34.392 366.873 35.832 366.084 37.048C365.294 38.264 364.174 39.2027 362.724 39.864C361.273 40.504 359.545 40.824 357.54 40.824H350.724L353.028 38.488V47H347.844ZM353.028 39.064L350.724 36.6H357.252C358.852 36.6 360.046 36.2587 360.836 35.576C361.625 34.8933 362.02 33.944 362.02 32.728C362.02 31.4907 361.625 30.5307 360.836 29.848C360.046 29.1653 358.852 28.824 357.252 28.824H350.724L353.028 26.36V39.064ZM370.929 47V23.256H375.921V47H370.929ZM391.114 47V43.64L390.794 42.904V36.888C390.794 35.8213 390.463 34.9893 389.802 34.392C389.162 33.7947 388.17 33.496 386.826 33.496C385.909 33.496 385.002 33.6453 384.106 33.944C383.231 34.2213 382.485 34.6053 381.866 35.096L380.074 31.608C381.013 30.9467 382.143 30.4347 383.466 30.072C384.789 29.7093 386.133 29.528 387.498 29.528C390.122 29.528 392.159 30.1467 393.61 31.384C395.061 32.6213 395.786 34.552 395.786 37.176V47H391.114ZM385.866 47.256C384.522 47.256 383.37 47.032 382.41 46.584C381.45 46.1147 380.714 45.4853 380.202 44.696C379.69 43.9067 379.434 43.0213 379.434 42.04C379.434 41.016 379.679 40.12 380.17 39.352C380.682 38.584 381.482 37.9867 382.57 37.56C383.658 37.112 385.077 36.888 386.826 36.888H391.402V39.8H387.37C386.197 39.8 385.386 39.992 384.938 40.376C384.511 40.76 384.298 41.24 384.298 41.816C384.298 42.456 384.543 42.968 385.034 43.352C385.546 43.7147 386.239 43.896 387.114 43.896C387.946 43.896 388.693 43.704 389.354 43.32C390.015 42.9147 390.495 42.328 390.794 41.56L391.562 43.864C391.199 44.9733 390.538 45.816 389.578 46.392C388.618 46.968 387.381 47.256 385.866 47.256ZM407.344 47.256C405.317 47.256 403.739 46.744 402.608 45.72C401.477 44.6747 400.912 43.128 400.912 41.08V25.976H405.904V41.016C405.904 41.7413 406.096 42.3067 406.48 42.712C406.864 43.096 407.387 43.288 408.048 43.288C408.837 43.288 409.509 43.0747 410.064 42.648L411.408 46.168C410.896 46.5307 410.277 46.808 409.552 47C408.848 47.1707 408.112 47.256 407.344 47.256ZM398.256 34.008V30.168H410.192V34.008H398.256ZM414.818 47V29.4C414.818 27.4587 415.394 25.912 416.546 24.76C417.698 23.5867 419.341 23 421.474 23C422.2 23 422.893 23.0747 423.554 23.224C424.237 23.3733 424.813 23.608 425.282 23.928L423.97 27.544C423.693 27.352 423.384 27.2027 423.042 27.096C422.701 26.9893 422.338 26.936 421.954 26.936C421.229 26.936 420.664 27.1493 420.258 27.576C419.874 27.9813 419.682 28.6 419.682 29.432V31.032L419.81 33.176V47H414.818ZM412.162 34.008V30.168H424.098V34.008H412.162ZM434.559 47.256C432.724 47.256 431.092 46.872 429.663 46.104C428.255 45.336 427.135 44.2907 426.303 42.968C425.492 41.624 425.087 40.0987 425.087 38.392C425.087 36.664 425.492 35.1387 426.303 33.816C427.135 32.472 428.255 31.4267 429.663 30.68C431.092 29.912 432.724 29.528 434.559 29.528C436.372 29.528 437.993 29.912 439.423 30.68C440.852 31.4267 441.972 32.4613 442.783 33.784C443.593 35.1067 443.999 36.6427 443.999 38.392C443.999 40.0987 443.593 41.624 442.783 42.968C441.972 44.2907 440.852 45.336 439.423 46.104C437.993 46.872 436.372 47.256 434.559 47.256ZM434.559 43.16C435.391 43.16 436.137 42.968 436.799 42.584C437.46 42.2 437.983 41.656 438.367 40.952C438.751 40.2267 438.943 39.3733 438.943 38.392C438.943 37.3893 438.751 36.536 438.367 35.832C437.983 35.128 437.46 34.584 436.799 34.2C436.137 33.816 435.391 33.624 434.559 33.624C433.727 33.624 432.98 33.816 432.319 34.2C431.657 34.584 431.124 35.128 430.719 35.832C430.335 36.536 430.143 37.3893 430.143 38.392C430.143 39.3733 430.335 40.2267 430.719 40.952C431.124 41.656 431.657 42.2 432.319 42.584C432.98 42.968 433.727 43.16 434.559 43.16ZM447.335 47V29.784H452.103V34.648L451.431 33.24C451.943 32.024 452.765 31.1067 453.895 30.488C455.026 29.848 456.402 29.528 458.023 29.528V34.136C457.81 34.1147 457.618 34.104 457.447 34.104C457.277 34.0827 457.095 34.072 456.903 34.072C455.538 34.072 454.429 34.4667 453.575 35.256C452.743 36.024 452.327 37.2293 452.327 38.872V47H447.335ZM483.071 29.528C484.436 29.528 485.641 29.8053 486.687 30.36C487.753 30.8933 488.585 31.7253 489.183 32.856C489.801 33.9653 490.111 35.3947 490.111 37.144V47H485.119V37.912C485.119 36.5253 484.831 35.5013 484.255 34.84C483.679 34.1787 482.868 33.848 481.823 33.848C481.097 33.848 480.447 34.0187 479.871 34.36C479.295 34.68 478.847 35.1707 478.527 35.832C478.207 36.4933 478.047 37.336 478.047 38.36V47H473.055V37.912C473.055 36.5253 472.767 35.5013 472.191 34.84C471.636 34.1787 470.836 33.848 469.791 33.848C469.065 33.848 468.415 34.0187 467.839 34.36C467.263 34.68 466.815 35.1707 466.495 35.832C466.175 36.4933 466.015 37.336 466.015 38.36V47H461.023V29.784H465.791V34.488L464.895 33.112C465.492 31.9387 466.335 31.0533 467.423 30.456C468.532 29.8373 469.791 29.528 471.199 29.528C472.777 29.528 474.153 29.9333 475.327 30.744C476.521 31.5333 477.311 32.7493 477.695 34.392L475.935 33.912C476.511 32.568 477.428 31.5013 478.687 30.712C479.967 29.9227 481.428 29.528 483.071 29.528Z" fill="black"/>
</svg>
